<?xml version="1.0" encoding="UTF-8" standalone="no"?>
<!DOCTYPE svg PUBLIC "-//W3C//DTD SVG 1.1//EN" "http://www.w3.org/Graphics/SVG/1.1/DTD/svg11.dtd">
<svg xmlns="http://www.w3.org/2000/svg" xmlns:xlink="http://www.w3.org/1999/xlink" version="1.1" width="395.76pt" height="123.12pt" viewBox="0 0 395.76 123.12">
<g enable-background="new">
<clipPath id="cp0">
<path transform="matrix(1,0,0,-1,0,123.12)" d="M 0 .1915 L 395.73 .1915 L 395.73 123.1205 L 0 123.1205 Z " fill-rule="evenodd"/>
</clipPath>
<g clip-path="url(#cp0)">
<path transform="matrix(1,0,0,-1,0,123.12)" stroke-width=".55" stroke-linecap="round" stroke-linejoin="round" fill="none" stroke="#b8c3d7" d="M 388.575 43.8617 C 388.575 45.8808 386.936 47.52 384.916 47.52 L 3.6882 47.52 C 1.6691 47.52 .0299 45.8808 .0299 43.8617 L .0299 7.7383 C .0299 5.7192 1.6691 4.08 3.6882 4.08 L 384.916 4.08 C 386.936 4.08 388.575 5.7192 388.575 7.7383 Z "/>
<symbol id="font_1_4">
<path d="M 0 .109000008 C .043000007 .049000004 .12900001 0 .24500004 0 C .39600004 0 .48900006 .08100001 .48900006 .193 C .48900006 .298 .397 .35000003 .33400003 .356 C .40000005 .368 .479 .41700004 .479 .51000007 C .479 .62200006 .381 .68900009 .24500004 .68900009 C .13800001 .68900009 .059 .64400008 .009 .58500006 L .062000008 .52300009 C .11100001 .5730001 .16600001 .6 .23600003 .6 C .31500004 .6 .37900005 .56400009 .37900005 .49600003 C .37900005 .42700003 .31300003 .397 .23200003 .397 C .206 .397 .171 .397 .16 .398 L .16 .307 C .17000002 .308 .20500002 .308 .23200003 .308 C .32900004 .308 .38900004 .277 .38900004 .20300001 C .38900004 .133 .33400003 .08900001 .24200002 .08900001 C .167 .08900001 .098000008 .12300001 .056 .174 L 0 .109000008 Z "/>
</symbol>
<symbol id="font_1_5">
<path d="M 0 0 L .321 0 C .444 0 .514 .075 .514 .18 C .514 .261 .45600004 .333 .38500003 .344 C .44600005 .35700003 .50100007 .41300003 .50100007 .497 C .50100007 .59400007 .43200005 .66700008 .31300003 .66700008 L 0 .66700008 L 0 0 M .10000001 .384 L .10000001 .57900008 L .29400004 .57900008 C .36100004 .57900008 .39800004 .536 .39800004 .48100005 C .39800004 .42600004 .36100004 .384 .29400004 .384 L .10000001 .384 M .10000001 .08800001 L .10000001 .296 L .29900003 .296 C .37300004 .296 .411 .24800001 .411 .193 C .411 .128 .36900003 .08800001 .29900003 .08800001 L .10000001 .08800001 Z "/>
</symbol>
<symbol id="font_1_a">
<path d="M 0 .254 C 0 .102000009 .106 0 .25000004 0 C .328 0 .39600004 .025 .44400005 .072000008 L .40200005 .131 C .36600004 .094000007 .31000004 .074 .25900004 .074 C .162 .074 .102000009 .142 .095000009 .224 L .47700007 .224 L .47700007 .246 C .47700007 .39400003 .38700003 .507 .24200002 .507 C .101 .507 0 .39400003 0 .254 M .24200002 .43300004 C .344 .43300004 .38700003 .35300002 .38900004 .289 L .094000007 .289 C .099 .35500003 .14500001 .43300004 .24200002 .43300004 Z "/>
</symbol>
<symbol id="font_1_12">
<path d="M 0 .075 C .049000004 .025 .120000008 0 .201 0 C .328 0 .39600004 .065000008 .39600004 .148 C .39600004 .259 .296 .282 .21200001 .301 C .15200001 .315 .10000001 .329 .10000001 .37100003 C .10000001 .41000004 .13800001 .43400003 .19900002 .43400003 C .26000003 .43400003 .314 .409 .342 .375 L .38200004 .43800003 C .34100003 .47700004 .28100003 .507 .19800002 .507 C .080000009 .507 .014000002 .441 .014000002 .36400003 C .014000002 .26000003 .11 .238 .19200002 .21900001 C .254 .205 .30900003 .189 .30900003 .141 C .30900003 .10000001 .273 .072000008 .20500002 .072000008 C .14 .072000008 .076000008 .105000007 .043000007 .141 L 0 .075 Z "/>
</symbol>
<symbol id="font_1_13">
<path d="M .19500001 0 C .242 0 .27 .013 .28900004 .031000002 L .26600004 .09900001 C .25700004 .08900001 .238 .080000009 .21700001 .080000009 C .186 .080000009 .17 .105000007 .17 .139 L .17 .416 L .26800005 .416 L .26800005 .495 L .17 .495 L .17 .62700006 L .080000009 .62700006 L .080000009 .495 L 0 .495 L 0 .416 L .080000009 .416 L .080000009 .11900001 C .080000009 .043 .11900001 0 .19500001 0 Z "/>
</symbol>
<symbol id="font_1_6">
<path d="M .57500007 0 L .68200007 0 L .87200006 .66700008 L .76000007 .66700008 L .62200006 .132 L .47700004 .66700008 L .39600004 .66700008 L .25000004 .132 L .11200001 .66700008 L 0 .66700008 L .191 0 L .29800005 0 L .43600003 .51500007 L .57500007 0 Z "/>
</symbol>
<symbol id="font_1_8">
<path d="M 0 .012 L .089999999 .012 L .089999999 .08100001 C .12600002 .033 .18300003 0 .24800003 0 C .37300004 0 .46300004 .095000009 .46300004 .25300003 C .46300004 .40800003 .374 .507 .24800003 .507 C .185 .507 .12799999 .47700004 .089999999 .425 L .089999999 .6790001 L 0 .6790001 L 0 .012 M .089999999 .15 L .089999999 .35500003 C .114 .39400003 .169 .42700003 .224 .42700003 C .314 .42700003 .37000004 .354 .37000004 .25300003 C .37000004 .152 .314 .080000009 .224 .080000009 C .169 .080000009 .114 .11100001 .089999999 .15 Z "/>
</symbol>
<symbol id="font_1_9">
<path d="M 0 .254 C 0 .109000008 .1 0 .24600002 0 C .337 0 .39200003 .038000004 .42700003 .08500001 L .367 .14 C .33800004 .10000001 .29900003 .080000009 .25000004 .080000009 C .155 .080000009 .094000007 .154 .094000007 .254 C .094000007 .354 .155 .42700003 .25000004 .42700003 C .29900003 .42700003 .33800004 .40800003 .367 .367 L .42700003 .42200003 C .39200003 .469 .337 .507 .24600002 .507 C .1 .507 0 .39900003 0 .254 Z "/>
</symbol>
<symbol id="font_1_7">
<path d="M .326 .012 L .416 .012 L .416 .338 C .416 .46100004 .32700003 .507 .222 .507 C .14400001 .507 .07800001 .481 .024 .428 L .06300001 .366 C .106000009 .409 .15300001 .43 .208 .43 C .277 .43 .326 .39400003 .326 .33400003 L .326 .254 C .289 .29700003 .23300001 .31800003 .16800002 .31800003 C .08700001 .31800003 0 .27 0 .16 C 0 .054000006 .088 0 .16800002 0 C .23300001 0 .28800003 .023000002 .326 .065000008 L .326 .012 M .326 .11800001 C .29900003 .082 .252 .063 .202 .063 C .13700001 .063 .091000009 .102000009 .091000009 .159 C .091000009 .216 .13700001 .25500003 .202 .25500003 C .252 .25500003 .29900003 .236 .326 .2 L .326 .11800001 Z "/>
</symbol>
<symbol id="font_1_d">
<path d="M .587 0 L .677 0 L .677 .349 C .677 .446 .629 .49500004 .54 .49500004 C .469 .49500004 .40500004 .45000003 .37700004 .40500004 C .36200003 .45700003 .31900005 .49500004 .24600002 .49500004 C .174 .49500004 .11000001 .44500003 .089999999 .41500003 L .089999999 .483 L 0 .483 L 0 0 L .089999999 0 L .089999999 .34500004 C .114 .38000003 .16100002 .41500003 .208 .41500003 C .26900003 .41500003 .293 .37800003 .293 .32200004 L .293 0 L .38300003 0 L .38300003 .34600003 C .40600003 .381 .45400004 .41500003 .503 .41500003 C .562 .41500003 .587 .37800003 .587 .32200004 L .587 0 Z "/>
</symbol>
<symbol id="font_1_3">
<path d="M .004999999 0 L .47500003 0 L .47500003 .08800001 L .164 .08800001 C .34700004 .22900002 .47200007 .34600003 .47200007 .476 C .47200007 .609 .35900004 .67700007 .23900001 .67700007 C .146 .67700007 .055000005 .64000007 0 .57100006 L .059000005 .50600007 C .099999997 .555 .161 .588 .24 .588 C .30500005 .588 .37000004 .554 .37000004 .476 C .37000004 .37100003 .25500003 .27100004 .004999999 .079 L .004999999 0 Z "/>
</symbol>
<symbol id="font_1_1">
<path d="M 0 .345 C 0 .18 .076000008 0 .261 0 C .446 0 .522 .18 .522 .345 C .522 .51000007 .446 .68900009 .261 .68900009 C .076000008 .68900009 0 .51000007 0 .345 M .42000003 .345 C .42000003 .215 .379 .08900001 .261 .08900001 C .143 .08900001 .102 .215 .102 .345 C .102 .47500003 .143 .6 .261 .6 C .379 .6 .42000003 .47500003 .42000003 .345 Z "/>
</symbol>
<symbol id="font_1_2">
<path d="M .167 0 L .26700003 0 L .26700003 .66700008 L .179 .66700008 L 0 .48400004 L .059000009 .423 L .167 .536 L .167 0 Z "/>
</symbol>
<symbol id="font_1_15">
<path d="M 0 0 L .06400001 0 L .06400001 .707 L 0 .707 L 0 0 Z "/>
</symbol>
<symbol id="font_1_14">
<path d="M .48300005 0 L .57600006 0 L .72800007 .483 L .634 .483 L .524 .115 L .40300004 .483 L .32500003 .483 L .20400001 .115 L .094000007 .483 L 0 .483 L .15200001 0 L .24500002 0 L .36400003 .37100003 L .48300005 0 Z "/>
</symbol>
<symbol id="font_1_c">
<path d="M .058000003 .564 C .09 .564 .11600001 .58900007 .11600001 .62100008 C .11600001 .65300008 .09 .679 .058000003 .679 C .026999999 .679 0 .65300008 0 .62100008 C 0 .58900007 .026999999 .564 .058000003 .564 M .014000002 0 L .104 0 L .104 .483 L .014000002 .483 L .014000002 0 Z "/>
</symbol>
<symbol id="font_1_b">
<path d="M .32600004 0 L .41600005 0 L .41600005 .34100003 C .41600005 .44300003 .36400003 .49500004 .261 .49500004 C .187 .49500004 .122 .45400004 .089999999 .41500003 L .089999999 .66700008 L 0 .66700008 L 0 0 L .089999999 0 L .089999999 .34500004 C .116000007 .381 .167 .41500003 .22300002 .41500003 C .28500004 .41500003 .32600004 .39100004 .32600004 .31100003 L .32600004 0 Z "/>
</symbol>
<symbol id="font_1_11">
<path d="M 0 0 L .089999999 0 L .089999999 .33600004 C .11100001 .372 .17200002 .40600003 .21700001 .40600003 C .22900003 .40600003 .23900002 .40500004 .24800003 .40300004 L .24800003 .49400003 C .18400002 .49400003 .127 .45700003 .089999999 .409 L .089999999 .483 L 0 .483 L 0 0 Z "/>
</symbol>
<symbol id="font_1_f">
<path d="M .24400002 0 C .395 0 .48800005 .11400001 .48800005 .254 C .48800005 .393 .395 .507 .24400002 .507 C .094000007 .507 0 .393 0 .254 C 0 .11400001 .094000007 0 .24400002 0 M .24400002 .080000009 C .148 .080000009 .094000007 .162 .094000007 .254 C .094000007 .345 .148 .42700003 .24400002 .42700003 C .34100003 .42700003 .39400003 .345 .39400003 .254 C .39400003 .162 .34100003 .080000009 .24400002 .080000009 Z "/>
</symbol>
<symbol id="font_1_10">
<path d="M .089999999 0 L .089999999 .254 C .12900001 .20100002 .185 .17200002 .24800003 .17200002 C .374 .17200002 .46300004 .268 .46300004 .42600004 C .46300004 .584 .374 .679 .24800003 .679 C .18300003 .679 .125 .646 .089999999 .59800007 L .089999999 .66700008 L 0 .66700008 L 0 0 L .089999999 0 M .36900003 .42600004 C .36900003 .32500003 .314 .25200004 .224 .25200004 C .169 .25200004 .114 .28500004 .089999999 .323 L .089999999 .528 C .114 .56700006 .169 .59900006 .224 .59900006 C .314 .59900006 .36900003 .526 .36900003 .42600004 Z "/>
</symbol>
<symbol id="font_1_e">
<path d="M .32600004 0 L .41600005 0 L .41600005 .33900003 C .41600005 .441 .36300005 .49500004 .261 .49500004 C .18600002 .49500004 .122 .45400004 .089999999 .41500003 L .089999999 .483 L 0 .483 L 0 0 L .089999999 0 L .089999999 .34500004 C .116000007 .381 .167 .41500003 .22300002 .41500003 C .28500004 .41500003 .32600004 .38900004 .32600004 .30900003 L .32600004 0 Z "/>
</symbol>
<use xlink:href="#font_1_4" transform="matrix(15,0,0,-15,2.7948902,13.997002)" fill="#1a0dab"/>
<use xlink:href="#font_1_5" transform="matrix(15,0,0,-15,15.85989,13.817001)" fill="#1a0dab"/>
<use xlink:href="#font_1_a" transform="matrix(15,0,0,-15,24.94989,13.997002)" fill="#1a0dab"/>
<use xlink:href="#font_1_12" transform="matrix(15,0,0,-15,33.16989,13.997002)" fill="#1a0dab"/>
<use xlink:href="#font_1_13" transform="matrix(15,0,0,-15,39.889894,13.997002)" fill="#1a0dab"/>
<use xlink:href="#font_1_6" transform="matrix(15,0,0,-15,48.34989,13.817001)" fill="#1a0dab"/>
<use xlink:href="#font_1_a" transform="matrix(15,0,0,-15,61.62489,13.997002)" fill="#1a0dab"/>
<use xlink:href="#font_1_8" transform="matrix(15,0,0,-15,70.47489,13.997002)" fill="#1a0dab"/>
<use xlink:href="#font_1_9" transform="matrix(15,0,0,-15,78.694889,13.997002)" fill="#1a0dab"/>
<use xlink:href="#font_1_7" transform="matrix(15,0,0,-15,86.164897,13.997002)" fill="#1a0dab"/>
<use xlink:href="#font_1_d" transform="matrix(15,0,0,-15,94.564899,13.817001)" fill="#1a0dab"/>
<use xlink:href="#font_1_12" transform="matrix(15,0,0,-15,106.23489,13.997002)" fill="#1a0dab"/>
<use xlink:href="#font_1_3" transform="matrix(15,0,0,-15,117.379909,13.817001)" fill="#1a0dab"/>
<use xlink:href="#font_1_1" transform="matrix(15,0,0,-15,126.229907,13.997002)" fill="#1a0dab"/>
<use xlink:href="#font_1_3" transform="matrix(15,0,0,-15,135.45491,13.817001)" fill="#1a0dab"/>
<use xlink:href="#font_1_2" transform="matrix(15,0,0,-15,143.88492,13.817001)" fill="#1a0dab"/>
<use xlink:href="#font_1_15" transform="matrix(15,0,0,-15,153.9799,14.117002)" fill="#1a0dab"/>
<use xlink:href="#font_1_6" transform="matrix(15,0,0,-15,160.0699,13.817001)" fill="#1a0dab"/>
<use xlink:href="#font_1_a" transform="matrix(15,0,0,-15,173.34491,13.997002)" fill="#1a0dab"/>
<use xlink:href="#font_1_8" transform="matrix(15,0,0,-15,182.1949,13.997002)" fill="#1a0dab"/>
<use xlink:href="#font_1_9" transform="matrix(15,0,0,-15,190.4149,13.997002)" fill="#1a0dab"/>
<use xlink:href="#font_1_7" transform="matrix(15,0,0,-15,197.8849,13.997002)" fill="#1a0dab"/>
<use xlink:href="#font_1_d" transform="matrix(15,0,0,-15,206.2849,13.817001)" fill="#1a0dab"/>
<use xlink:href="#font_1_14" transform="matrix(15,0,0,-15,221.49489,13.817001)" fill="#1a0dab"/>
<use xlink:href="#font_1_c" transform="matrix(15,0,0,-15,233.40489,13.817001)" fill="#1a0dab"/>
<use xlink:href="#font_1_13" transform="matrix(15,0,0,-15,236.17989,13.997002)" fill="#1a0dab"/>
<use xlink:href="#font_1_b" transform="matrix(15,0,0,-15,241.69989,13.817001)" fill="#1a0dab"/>
<use xlink:href="#font_1_d" transform="matrix(15,0,0,-15,253.96988,13.817001)" fill="#1a0dab"/>
<use xlink:href="#font_1_c" transform="matrix(15,0,0,-15,266.05986,13.817001)" fill="#1a0dab"/>
<use xlink:href="#font_1_9" transform="matrix(15,0,0,-15,269.31486,13.997002)" fill="#1a0dab"/>
<use xlink:href="#font_1_11" transform="matrix(15,0,0,-15,277.20484,13.817001)" fill="#1a0dab"/>
<use xlink:href="#font_1_f" transform="matrix(15,0,0,-15,281.82487,13.997002)" fill="#1a0dab"/>
<use xlink:href="#font_1_10" transform="matrix(15,0,0,-15,290.85484,16.577002)" fill="#1a0dab"/>
<use xlink:href="#font_1_b" transform="matrix(15,0,0,-15,299.50984,13.817001)" fill="#1a0dab"/>
<use xlink:href="#font_1_f" transform="matrix(15,0,0,-15,307.45985,13.997002)" fill="#1a0dab"/>
<use xlink:href="#font_1_e" transform="matrix(15,0,0,-15,316.4898,13.817001)" fill="#1a0dab"/>
<use xlink:href="#font_1_a" transform="matrix(15,0,0,-15,324.42485,13.997002)" fill="#1a0dab"/>
<path transform="matrix(1,0,0,-1,0,123.12)" d="M 2.4049 106.543 L 332.19493 106.543 L 332.19493 107.503 L 2.4049 107.503 Z " fill="#1a0dab" fill-rule="evenodd"/>
<symbol id="font_2_12">
<path d="M .32700003 0 L .402 0 L .402 .34100003 C .402 .446 .34900005 .49500004 .24800001 .49500004 C .175 .49500004 .10900001 .453 .075 .41300003 L .075 .66700008 L 0 .66700008 L 0 0 L .075 0 L .075 .35300002 C .104 .39200003 .16000001 .42800004 .21800001 .42800004 C .283 .42800004 .32700003 .40300004 .32700003 .31800003 L .32700003 0 Z "/>
</symbol>
<symbol id="font_2_1d">
<path d="M .187 0 C .231 0 .25800003 .013 .277 .031000002 L .25500003 .087000008 C .24500002 .076000008 .22500001 .067 .20400001 .067 C .171 .067 .155 .093 .155 .12900001 L .155 .42900003 L .25300003 .42900003 L .25300003 .495 L .155 .495 L .155 .62700006 L .080000009 .62700006 L .080000009 .495 L 0 .495 L 0 .42900003 L .080000009 .42900003 L .080000009 .113000009 C .080000009 .041 .116000007 0 .187 0 Z "/>
</symbol>
<symbol id="font_2_1a">
<path d="M .075 0 L .075 .25700004 C .11400001 .20300001 .172 .17200002 .23800002 .17200002 C .365 .17200002 .453 .27 .453 .42600004 C .453 .58300009 .365 .679 .23800002 .679 C .17 .679 .11 .64400008 .075 .595 L .075 .66700008 L 0 .66700008 L 0 0 L .075 0 M .374 .42600004 C .374 .319 .31600005 .23900002 .219 .23900002 C .16000001 .23900002 .10100001 .27500005 .075 .31700004 L .075 .535 C .10100001 .577 .16000001 .61200007 .219 .61200007 C .31600005 .61200007 .374 .533 .374 .42600004 Z "/>
</symbol>
<symbol id="font_2_1c">
<path d="M 0 .076000008 C .049000004 .024 .116000007 0 .19500003 0 C .32000003 0 .38500003 .065000008 .38500003 .146 C .38500003 .25300003 .28800003 .277 .20400003 .296 C .141 .31100003 .086 .326 .086 .37300004 C .086 .416 .127 .446 .19300002 .446 C .25500003 .446 .30800004 .42000003 .337 .38500003 L .37200005 .437 C .33300004 .476 .27500005 .507 .19300002 .507 C .07800001 .507 .013000004 .44300003 .013000004 .368 C .013000004 .268 .10600001 .246 .18800003 .227 C .25300003 .21100001 .31200005 .194 .31200005 .141 C .31200005 .094000007 .272 .061000006 .19800002 .061000006 C .132 .061000006 .071 .093 .039000006 .13000001 L 0 .076000008 Z "/>
</symbol>
<symbol id="font_2_23">
<path d="M 0 .44500003 C 0 .41500003 .024999999 .39000003 .055 .39000003 C .08500001 .39000003 .11 .41500003 .11 .44500003 C .11 .47500003 .08500001 .5 .055 .5 C .024999999 .5 0 .47500003 0 .44500003 M 0 .055000005 C 0 .025000003 .024999999 0 .055 0 C .08500001 0 .11 .025000003 .11 .055000005 C .11 .085 .08500001 .11 .055 .11 C .024999999 .11 0 .085 0 .055000005 Z "/>
</symbol>
<symbol id="font_2_24">
<path d="M 0 0 L .059000005 0 L .296 .707 L .23700002 .707 L 0 0 Z "/>
</symbol>
<symbol id="font_2_f">
<path d="M 0 .254 C 0 .10300001 .103 0 .246 0 C .32500003 0 .39000003 .026 .43800003 .074 L .40200005 .12300001 C .36400003 .08400001 .30800004 .062 .25300003 .062 C .149 .062 .08499999 .138 .078999999 .229 L .47000004 .229 L .47000004 .24800001 C .47000004 .393 .38400004 .507 .23800002 .507 C .099999997 .507 0 .39400003 0 .254 M .237 .44500003 C .34700004 .44500003 .39500005 .356 .39600004 .284 L .078999999 .284 C .083000008 .358 .134 .44500003 .237 .44500003 Z "/>
</symbol>
<symbol id="font_2_13">
<path d="M .05 .564 C .077999997 .564 .100999999 .587 .100999999 .615 C .100999999 .643 .077999997 .665 .05 .665 C .022999999 .665 0 .643 0 .615 C 0 .587 .022999999 .564 .05 .564 M .013 0 L .088 0 L .088 .483 L .013 .483 L .013 0 Z "/>
</symbol>
<symbol id="font_2_17">
<path d="M .58300009 0 L .65800008 0 L .65800008 .349 C .65800008 .446 .61100009 .49500004 .52300009 .49500004 C .453 .49500004 .388 .44900004 .361 .40500004 C .347 .455 .305 .49500004 .23100002 .49500004 C .16000001 .49500004 .095 .44400005 .075 .41300003 L .075 .483 L 0 .483 L 0 0 L .075 0 L .075 .35300002 C .10100001 .39200003 .15300001 .42800004 .202 .42800004 C .265 .42800004 .291 .38900004 .291 .328 L .291 0 L .366 0 L .366 .354 C .39100004 .39200003 .44400008 .42800004 .49400003 .42800004 C .55600008 .42800004 .58300009 .38900004 .58300009 .328 L .58300009 0 Z "/>
</symbol>
<symbol id="font_2_22">
<path d="M 0 .055000005 C 0 .025000003 .024999999 0 .055 0 C .08500001 0 .11 .025000003 .11 .055000005 C .11 .085 .08500001 .11 .055 .11 C .024999999 .11 0 .085 0 .055000005 Z "/>
</symbol>
<symbol id="font_2_14">
<path d="M .158 .76 C .186 .76 .209 .783 .209 .811 C .209 .839 .186 .86100009 .158 .86100009 C .13100001 .86100009 .10800001 .839 .10800001 .811 C .10800001 .783 .13100001 .76 .158 .76 M .19600001 .679 L .12100001 .679 L .12100001 .149 C .12100001 .08800001 .09 .065 .046000005 .065 C .034 .065 .020000004 .066 .010000002 .07000001 L 0 .0069999995 C .016000003 .002000004 .033000005 0 .054000006 0 C .14500001 0 .19600001 .054000006 .19600001 .149 L .19600001 .679 Z "/>
</symbol>
<symbol id="font_2_b">
<path d="M .329 .012 L .404 .012 L .404 .344 C .404 .46100004 .319 .507 .21700001 .507 C .13800001 .507 .076000008 .481 .024000004 .42700003 L .059000009 .375 C .102000009 .421 .14900002 .442 .20700002 .442 C .277 .442 .329 .405 .329 .34 L .329 .25300003 C .29000003 .298 .23500002 .319 .169 .319 C .087000008 .319 0 .268 0 .16 C 0 .055 .087000008 0 .169 0 C .234 0 .289 .023000002 .329 .067 L .329 .012 M .329 .11400001 C .3 .074 .24900002 .054000006 .19600001 .054000006 C .12600002 .054000006 .077 .098000008 .077 .159 C .077 .221 .12600002 .26500003 .19600001 .26500003 C .24900002 .26500003 .3 .245 .329 .205 L .329 .11400001 Z "/>
</symbol>
<symbol id="font_2_11">
<path d="M .026999999 .072000008 C .08400001 .016000003 .14 0 .22200002 0 C .34000004 0 .45200003 .049999998 .45200003 .21000001 L .45200003 .679 L .37700004 .679 L .37700004 .60600009 C .33800004 .65900006 .28000004 .69100007 .21500002 .69100007 C .088 .69100007 0 .595 0 .44000004 C 0 .284 .089 .19000001 .21500002 .19000001 C .28300003 .19000001 .34200005 .22700002 .37700004 .27600003 L .37700004 .20700002 C .37700004 .101 .30200003 .062000008 .22200002 .062000008 C .153 .062000008 .105000007 .080000009 .065 .128 L .026999999 .072000008 M .37700004 .33500005 C .35100005 .293 .293 .256 .233 .256 C .136 .256 .077999997 .33400003 .077999997 .44000004 C .077999997 .54700008 .136 .6240001 .233 .6240001 C .293 .6240001 .35100005 .58800008 .37700004 .546 L .37700004 .33500005 Z "/>
</symbol>
<symbol id="font_2_21">
<path d="M 0 0 L .36800004 0 L .36800004 .065000008 L .096 .065000008 L .36400003 .42600004 L .36400003 .483 L 0 .483 L 0 .41700004 L .26600004 .41700004 L 0 .058000003 L 0 0 Z "/>
</symbol>
<symbol id="font_2_18">
<path d="M .32600004 0 L .40100003 0 L .40100003 .33900003 C .40100003 .44400005 .348 .49500004 .24700003 .49500004 C .175 .49500004 .10900001 .453 .075 .41300003 L .075 .483 L 0 .483 L 0 0 L .075 0 L .075 .35300002 C .103 .39200003 .15900001 .42800004 .21800001 .42800004 C .283 .42800004 .32600004 .40100003 .32600004 .316 L .32600004 0 Z "/>
</symbol>
<symbol id="font_2_5">
<path d="M 0 .18100001 C 0 .067 .10700001 0 .23900001 0 C .37 0 .47800005 .068 .47800005 .18100001 C .47800005 .27 .402 .331 .319 .356 C .39600004 .37800003 .46800006 .428 .46800006 .51600006 C .46800006 .63600006 .34900005 .68900009 .23900001 .68900009 C .128 .68900009 .011 .63600006 .011 .51600006 C .011 .428 .082 .37800003 .15900001 .356 C .076000008 .331 0 .27 0 .18100001 M .384 .50500008 C .384 .42400003 .28000004 .397 .23900001 .39000003 C .19900002 .397 .09400001 .42400003 .09400001 .50500008 C .09400001 .57400009 .158 .61500009 .23900001 .61500009 C .319 .61500009 .384 .57400009 .384 .50500008 M .394 .19 C .394 .11800001 .32100005 .074 .23900001 .074 C .156 .074 .083000008 .11800001 .083000008 .19 C .083000008 .277 .198 .314 .23900001 .319 C .28000004 .314 .394 .277 .394 .19 Z "/>
</symbol>
<symbol id="font_2_6">
<path d="M .035000005 .080000009 C .077 .032 .13500002 0 .22000003 0 C .40700004 0 .49100004 .16400002 .49100004 .344 C .49100004 .526 .42000003 .689 .23300001 .689 C .08800001 .689 0 .586 0 .47100003 C 0 .32900004 .099 .25800003 .21900001 .25800003 C .30400003 .25800003 .37800003 .316 .40700004 .36200003 C .40800003 .35300002 .40800003 .344 .40800003 .335 C .40800003 .20900002 .35500003 .074 .22000003 .074 C .151 .074 .11100001 .102000009 .077 .14200002 L .035000005 .080000009 M .404 .42900003 C .36900003 .37000004 .30400003 .33 .238 .33 C .15200001 .33 .084 .37600003 .084 .47400005 C .084 .537 .13500002 .615 .23700002 .615 C .35300002 .615 .397 .512 .404 .42900003 Z "/>
</symbol>
<symbol id="font_2_3">
<path d="M .0009999983 0 L .45900003 0 L .45900003 .074 L .132 .074 C .31800003 .22100002 .456 .34500004 .456 .48100005 C .456 .614 .34300003 .67700007 .23200003 .67700007 C .13800001 .67700007 .051 .63900008 0 .572 L .051 .51900008 C .09 .569 .15200001 .60300007 .23200003 .60300007 C .301 .60300007 .37100003 .56600007 .37100003 .48100005 C .37100003 .36600004 .241 .25500003 .0009999983 .066 L .0009999983 0 Z "/>
</symbol>
<symbol id="font_2_4">
<path d="M .317 0 L .4 0 L .4 .16900002 L .49400003 .16900002 L .49400003 .24200002 L .4 .24200002 L .4 .66700008 L .286 .66700008 L 0 .238 L 0 .16900002 L .317 .16900002 L .317 0 M .317 .59000006 L .317 .24200002 L .083000008 .24200002 L .317 .59000006 Z "/>
</symbol>
<symbol id="font_2_1">
<path d="M 0 .345 C 0 .183 .072 0 .25500003 0 C .43700005 0 .51000007 .183 .51000007 .345 C .51000007 .508 .43700005 .68900009 .25500003 .68900009 C .072 .68900009 0 .508 0 .345 M .425 .345 C .425 .212 .38200004 .074 .25500003 .074 C .128 .074 .08500001 .212 .08500001 .345 C .08500001 .47800002 .128 .61500009 .25500003 .61500009 C .38200004 .61500009 .425 .47800002 .425 .345 Z "/>
</symbol>
<symbol id="font_2_2">
<path d="M .157 0 L .24000001 0 L .24000001 .66700008 L .16700001 .66700008 L 0 .49500004 L .05 .44400005 L .157 .55700007 L .157 0 Z "/>
</symbol>
<use xlink:href="#font_2_12" transform="matrix(11,0,0,-11,3.0687502,33.0158)" fill="#20692c"/>
<use xlink:href="#font_2_1d" transform="matrix(11,0,0,-11,8.42575,33.1478)" fill="#20692c"/>
<use xlink:href="#font_2_1d" transform="matrix(11,0,0,-11,11.659751,33.1478)" fill="#20692c"/>
<use xlink:href="#font_2_1a" transform="matrix(11,0,0,-11,15.60875,35.039804)" fill="#20692c"/>
<use xlink:href="#font_2_1c" transform="matrix(11,0,0,-11,21.46075,33.1478)" fill="#20692c"/>
<use xlink:href="#font_2_23" transform="matrix(11,0,0,-11,26.87275,33.1258)" fill="#20692c"/>
<use xlink:href="#font_2_24" transform="matrix(11,0,0,-11,28.74275,33.2358)" fill="#20692c"/>
<use xlink:href="#font_2_24" transform="matrix(11,0,0,-11,31.99875,33.2358)" fill="#20692c"/>
<use xlink:href="#font_2_12" transform="matrix(11,0,0,-11,36.079755,33.0158)" fill="#20692c"/>
<use xlink:href="#font_2_f" transform="matrix(11,0,0,-11,41.84375,33.1478)" fill="#20692c"/>
<use xlink:href="#font_2_13" transform="matrix(11,0,0,-11,48.20175,33.0158)" fill="#20692c"/>
<use xlink:href="#font_2_17" transform="matrix(11,0,0,-11,50.81975,33.0158)" fill="#20692c"/>
<use xlink:href="#font_2_22" transform="matrix(11,0,0,-11,59.54275,33.1258)" fill="#20692c"/>
<use xlink:href="#font_2_14" transform="matrix(11,0,0,-11,61.34675,35.1718)" fill="#20692c"/>
<use xlink:href="#font_2_1a" transform="matrix(11,0,0,-11,65.15274,35.039804)" fill="#20692c"/>
<use xlink:href="#font_2_24" transform="matrix(11,0,0,-11,70.64175,33.2358)" fill="#20692c"/>
<use xlink:href="#font_2_17" transform="matrix(11,0,0,-11,74.72274,33.0158)" fill="#20692c"/>
<use xlink:href="#font_2_b" transform="matrix(11,0,0,-11,83.31374,33.1478)" fill="#20692c"/>
<use xlink:href="#font_2_11" transform="matrix(11,0,0,-11,89.09974,35.1718)" fill="#20692c"/>
<use xlink:href="#font_2_b" transform="matrix(11,0,0,-11,95.42474,33.1478)" fill="#20692c"/>
<use xlink:href="#font_2_21" transform="matrix(11,0,0,-11,101.26574,33.0158)" fill="#20692c"/>
<use xlink:href="#font_2_13" transform="matrix(11,0,0,-11,106.56774,33.0158)" fill="#20692c"/>
<use xlink:href="#font_2_18" transform="matrix(11,0,0,-11,109.18574,33.0158)" fill="#20692c"/>
<use xlink:href="#font_2_f" transform="matrix(11,0,0,-11,114.938739,33.1478)" fill="#20692c"/>
<use xlink:href="#font_2_24" transform="matrix(11,0,0,-11,120.61474,33.2358)" fill="#20692c"/>
<use xlink:href="#font_2_5" transform="matrix(11,0,0,-11,124.44273,33.1478)" fill="#20692c"/>
<use xlink:href="#font_2_6" transform="matrix(11,0,0,-11,130.80074,33.1368)" fill="#20692c"/>
<use xlink:href="#font_2_3" transform="matrix(11,0,0,-11,137.34574,33.0158)" fill="#20692c"/>
<use xlink:href="#font_2_4" transform="matrix(11,0,0,-11,143.58275,33.0158)" fill="#20692c"/>
<use xlink:href="#font_2_1" transform="matrix(11,0,0,-11,149.92975,33.1478)" fill="#20692c"/>
<use xlink:href="#font_2_2" transform="matrix(11,0,0,-11,156.33174,33.0158)" fill="#20692c"/>
<use xlink:href="#font_2_1" transform="matrix(11,0,0,-11,160.39075,33.1478)" fill="#20692c"/>
<symbol id="font_2_7">
<path d="M .54800006 0 L .64000007 0 L .37100003 .66700008 L .268 .66700008 L 0 0 L .092 0 L .15100001 .148 L .48900003 .148 L .54800006 0 M .32000003 .59300008 L .46400003 .22200002 L .17500001 .22200002 L .32000003 .59300008 Z "/>
</symbol>
<symbol id="font_2_20">
<path d="M .48100005 0 L .556 0 L .71000006 .483 L .632 .483 L .514 .098000008 L .38700003 .483 L .323 .483 L .19600001 .098000008 L .078 .483 L 0 .483 L .15400002 0 L .22900002 0 L .35500003 .388 L .48100005 0 Z "/>
</symbol>
<symbol id="font_2_c">
<path d="M 0 .012 L .075 .012 L .075 .08400001 C .111 .035000005 .17 0 .23800002 0 C .36400003 0 .453 .09600001 .453 .25300003 C .453 .407 .36400003 .507 .23800002 .507 C .172 .507 .11400001 .47500003 .075 .42200003 L .075 .6790001 L 0 .6790001 L 0 .012 M .075 .143 L .075 .36200003 C .10100001 .404 .16000001 .44000004 .219 .44000004 C .31700004 .44000004 .375 .36 .375 .25300003 C .375 .146 .31700004 .067 .219 .067 C .16000001 .067 .10100001 .101 .075 .143 Z "/>
</symbol>
<symbol id="font_2_d">
<path d="M 0 .254 C 0 .11000001 .097 0 .24100001 0 C .32900004 0 .38100005 .036 .41800005 .08400001 L .36800004 .13000001 C .33600004 .087000008 .29500003 .067 .24500002 .067 C .142 .067 .077999997 .147 .077999997 .254 C .077999997 .361 .142 .44000004 .24500002 .44000004 C .29500003 .44000004 .33600004 .421 .36800004 .377 L .41800005 .423 C .38100005 .47100003 .32900004 .507 .24100001 .507 C .097 .507 0 .397 0 .254 Z "/>
</symbol>
<symbol id="font_2_1f">
<path d="M .201 0 L .28300003 0 L .48400004 .483 L .40200005 .483 L .242 .087000008 L .08100001 .483 L 0 .483 L .201 0 Z "/>
</symbol>
<symbol id="font_2_e">
<path d="M .37800003 .012 L .453 .012 L .453 .6790001 L .37800003 .6790001 L .37800003 .42200003 C .33900003 .47500003 .28000004 .507 .21500002 .507 C .088 .507 0 .407 0 .25300003 C 0 .09600001 .089 0 .21500002 0 C .28300003 0 .34200005 .035000005 .37800003 .08400001 L .37800003 .012 M .37800003 .143 C .35100005 .101 .293 .067 .233 .067 C .136 .067 .077999997 .146 .077999997 .25300003 C .077999997 .36 .136 .44000004 .233 .44000004 C .293 .44000004 .35100005 .404 .37800003 .36200003 L .37800003 .143 Z "/>
</symbol>
<symbol id="font_2_19">
<path d="M .23900001 0 C .38600005 0 .47800005 .11400001 .47800005 .254 C .47800005 .39400003 .38600005 .507 .23900001 .507 C .09200001 .507 0 .39400003 0 .254 C 0 .11400001 .09200001 0 .23900001 0 M .23900001 .067 C .136 .067 .077999997 .155 .077999997 .254 C .077999997 .352 .136 .44000004 .23900001 .44000004 C .34200005 .44000004 .39900003 .352 .39900003 .254 C .39900003 .155 .34200005 .067 .23900001 .067 Z "/>
</symbol>
<symbol id="font_2_1b">
<path d="M 0 0 L .075 0 L .075 .342 C .097 .381 .16000001 .41900004 .20600002 .41900004 C .21800001 .41900004 .22700002 .418 .23600002 .416 L .23600002 .49300004 C .17 .49300004 .11400001 .45600004 .075 .40500004 L .075 .483 L 0 .483 L 0 0 Z "/>
</symbol>
<symbol id="font_2_1e">
<path d="M .32600004 .012 L .40100003 .012 L .40100003 .495 L .32600004 .495 L .32600004 .14 C .29800005 .101 .242 .067 .18300002 .067 C .118 .067 .075 .09200001 .075 .177 L .075 .495 L 0 .495 L 0 .154 C 0 .049000004 .053000004 0 .15400002 0 C .22600003 0 .28900004 .038000004 .32600004 .080000009 L .32600004 .012 Z "/>
</symbol>
<symbol id="font_2_16">
<path d="M 0 0 L .075 0 L .075 .66700008 L 0 .66700008 L 0 0 Z "/>
</symbol>
<symbol id="font_2_15">
<path d="M .329 0 L .425 0 L .21000003 .264 L .42400003 .483 L .329 .483 L .075 .22600001 L .075 .66700008 L 0 .66700008 L 0 0 L .075 0 L .075 .13800001 L .155 .21700001 L .329 0 Z "/>
</symbol>
<symbol id="font_2_9">
<path d="M 0 0 L .08300001 0 L .08300001 .26500003 L .268 .26500003 C .4 .26500003 .477 .35700003 .477 .46600003 C .477 .57500007 .402 .66700008 .268 .66700008 L 0 .66700008 L 0 0 M .391 .46600003 C .391 .39100004 .337 .33900003 .25800003 .33900003 L .08300001 .33900003 L .08300001 .59300008 L .25800003 .59300008 C .337 .59300008 .391 .541 .391 .46600003 Z "/>
</symbol>
<symbol id="font_2_8">
<path d="M .34000004 0 C .46100004 0 .541 .056 .597 .132 L .526 .171 C .48800005 .11400001 .41900004 .074 .34000004 .074 C .19700001 .074 .08600001 .187 .08600001 .345 C .08600001 .504 .19700001 .61600008 .34000004 .61600008 C .41900004 .61600008 .48800005 .57500007 .526 .51900008 L .596 .558 C .54300007 .6330001 .46100004 .69000008 .34000004 .69000008 C .15100001 .69000008 0 .5500001 0 .345 C 0 .14 .15100001 0 .34000004 0 Z "/>
</symbol>
<symbol id="font_2_a">
<path d="M .574 0 L .66400006 0 L .85400006 .66700008 L .762 .66700008 L .615 .11100001 L .462 .66700008 L .393 .66700008 L .24000001 .11100001 L .09200001 .66700008 L 0 .66700008 L .19000001 0 L .28 0 L .42700003 .53800007 L .574 0 Z "/>
</symbol>
<use xlink:href="#font_2_7" transform="matrix(11,0,0,-11,3.14988,49.5253)" fill="#404040"/>
<use xlink:href="#font_2_20" transform="matrix(11,0,0,-11,13.258881,49.5253)" fill="#404040"/>
<use xlink:href="#font_2_f" transform="matrix(11,0,0,-11,21.717883,49.6573)" fill="#404040"/>
<use xlink:href="#font_2_c" transform="matrix(11,0,0,-11,28.218884,49.6573)" fill="#404040"/>
<use xlink:href="#font_2_d" transform="matrix(11,0,0,-11,34.23588,49.6573)" fill="#404040"/>
<use xlink:href="#font_2_b" transform="matrix(11,0,0,-11,39.691884,49.6573)" fill="#404040"/>
<use xlink:href="#font_2_17" transform="matrix(11,0,0,-11,45.785886,49.5253)" fill="#404040"/>
<use xlink:href="#font_2_13" transform="matrix(11,0,0,-11,57.368886,49.5253)" fill="#404040"/>
<use xlink:href="#font_2_1c" transform="matrix(11,0,0,-11,59.524885,49.6573)" fill="#404040"/>
<use xlink:href="#font_2_b" transform="matrix(11,0,0,-11,67.64288,49.6573)" fill="#404040"/>
<use xlink:href="#font_2_1f" transform="matrix(11,0,0,-11,75.782878,49.5253)" fill="#404040"/>
<use xlink:href="#font_2_13" transform="matrix(11,0,0,-11,81.82188,49.5253)" fill="#404040"/>
<use xlink:href="#font_2_e" transform="matrix(11,0,0,-11,84.131877,49.6573)" fill="#404040"/>
<use xlink:href="#font_2_f" transform="matrix(11,0,0,-11,90.45687,49.6573)" fill="#404040"/>
<use xlink:href="#font_2_19" transform="matrix(11,0,0,-11,96.64987,49.6573)" fill="#404040"/>
<use xlink:href="#font_2_d" transform="matrix(11,0,0,-11,105.77987,49.6573)" fill="#404040"/>
<use xlink:href="#font_2_b" transform="matrix(11,0,0,-11,111.23587,49.6573)" fill="#404040"/>
<use xlink:href="#font_2_17" transform="matrix(11,0,0,-11,117.329868,49.5253)" fill="#404040"/>
<use xlink:href="#font_2_f" transform="matrix(11,0,0,-11,125.90987,49.6573)" fill="#404040"/>
<use xlink:href="#font_2_1b" transform="matrix(11,0,0,-11,132.41086,49.5253)" fill="#404040"/>
<use xlink:href="#font_2_b" transform="matrix(11,0,0,-11,135.74387,49.6573)" fill="#404040"/>
<use xlink:href="#font_2_1d" transform="matrix(11,0,0,-11,143.96086,49.6573)" fill="#404040"/>
<use xlink:href="#font_2_12" transform="matrix(11,0,0,-11,147.90985,49.5253)" fill="#404040"/>
<use xlink:href="#font_2_b" transform="matrix(11,0,0,-11,153.68486,49.6573)" fill="#404040"/>
<use xlink:href="#font_2_1d" transform="matrix(11,0,0,-11,159.06386,49.6573)" fill="#404040"/>
<use xlink:href="#font_2_b" transform="matrix(11,0,0,-11,165.55385,49.6573)" fill="#404040"/>
<use xlink:href="#font_2_1d" transform="matrix(11,0,0,-11,170.93285,49.6573)" fill="#404040"/>
<use xlink:href="#font_2_1d" transform="matrix(11,0,0,-11,174.16684,49.6573)" fill="#404040"/>
<use xlink:href="#font_2_b" transform="matrix(11,0,0,-11,177.81884,49.6573)" fill="#404040"/>
<use xlink:href="#font_2_d" transform="matrix(11,0,0,-11,183.60483,49.6573)" fill="#404040"/>
<use xlink:href="#font_2_12" transform="matrix(11,0,0,-11,189.35784,49.5253)" fill="#404040"/>
<use xlink:href="#font_2_1d" transform="matrix(11,0,0,-11,197.55284,49.6573)" fill="#404040"/>
<use xlink:href="#font_2_19" transform="matrix(11,0,0,-11,201.19384,49.6573)" fill="#404040"/>
<use xlink:href="#font_2_b" transform="matrix(11,0,0,-11,210.33484,49.6573)" fill="#404040"/>
<use xlink:href="#font_2_d" transform="matrix(11,0,0,-11,218.95883,49.6573)" fill="#404040"/>
<use xlink:href="#font_2_19" transform="matrix(11,0,0,-11,224.40384,49.6573)" fill="#404040"/>
<use xlink:href="#font_2_17" transform="matrix(11,0,0,-11,231.00385,49.5253)" fill="#404040"/>
<use xlink:href="#font_2_1a" transform="matrix(11,0,0,-11,239.89185,51.5493)" fill="#404040"/>
<use xlink:href="#font_2_1e" transform="matrix(11,0,0,-11,246.20584,49.6573)" fill="#404040"/>
<use xlink:href="#font_2_1d" transform="matrix(11,0,0,-11,251.55185,49.6573)" fill="#404040"/>
<use xlink:href="#font_2_13" transform="matrix(11,0,0,-11,255.35785,49.5253)" fill="#404040"/>
<use xlink:href="#font_2_18" transform="matrix(11,0,0,-11,257.97587,49.5253)" fill="#404040"/>
<use xlink:href="#font_2_11" transform="matrix(11,0,0,-11,263.72886,51.681299)" fill="#404040"/>
<use xlink:href="#font_2_e" transform="matrix(11,0,0,-11,272.88087,49.6573)" fill="#404040"/>
<use xlink:href="#font_2_f" transform="matrix(11,0,0,-11,279.20588,49.6573)" fill="#404040"/>
<use xlink:href="#font_2_1f" transform="matrix(11,0,0,-11,284.91487,49.5253)" fill="#404040"/>
<use xlink:href="#font_2_13" transform="matrix(11,0,0,-11,290.9539,49.5253)" fill="#404040"/>
<use xlink:href="#font_2_d" transform="matrix(11,0,0,-11,293.2639,49.6573)" fill="#404040"/>
<use xlink:href="#font_2_f" transform="matrix(11,0,0,-11,298.7089,49.6573)" fill="#404040"/>
<use xlink:href="#font_2_16" transform="matrix(11,0,0,-11,308.0479,49.5253)" fill="#404040"/>
<use xlink:href="#font_2_13" transform="matrix(11,0,0,-11,310.3799,49.5253)" fill="#404040"/>
<use xlink:href="#font_2_15" transform="matrix(11,0,0,-11,312.99794,49.5253)" fill="#404040"/>
<use xlink:href="#font_2_f" transform="matrix(11,0,0,-11,318.0909,49.6573)" fill="#404040"/>
<use xlink:href="#font_2_9" transform="matrix(11,0,0,-11,327.46293,49.5253)" fill="#404040"/>
<use xlink:href="#font_2_8" transform="matrix(11,0,0,-11,333.62294,49.6573)" fill="#404040"/>
<use xlink:href="#font_2_22" transform="matrix(11,0,0,-11,341.15794,49.6353)" fill="#404040"/>
<use xlink:href="#font_2_a" transform="matrix(11,0,0,-11,346.01994,49.5253)" fill="#404040"/>
<use xlink:href="#font_2_f" transform="matrix(11,0,0,-11,355.65596,49.6573)" fill="#404040"/>
<use xlink:href="#font_2_c" transform="matrix(11,0,0,-11,362.15696,49.6573)" fill="#404040"/>
<use xlink:href="#font_2_d" transform="matrix(11,0,0,-11,368.17396,49.6573)" fill="#404040"/>
<use xlink:href="#font_2_b" transform="matrix(11,0,0,-11,373.62998,49.6573)" fill="#404040"/>
<use xlink:href="#font_2_17" transform="matrix(11,0,0,-11,379.72398,49.5253)" fill="#404040"/>
<use xlink:href="#font_2_1c" transform="matrix(11,0,0,-11,388.14997,49.6573)" fill="#404040"/>
<symbol id="font_2_10">
<path d="M .08 0 L .155 0 L .155 .41700004 L .25300003 .41700004 L .25300003 .483 L .155 .483 L .155 .52000007 C .155 .58100005 .18200001 .615 .231 .615 C .248 .615 .26200003 .611 .27400003 .60400006 L .293 .66 C .27400003 .67200008 .248 .67700007 .22000002 .67700007 C .136 .67700007 .08 .62 .08 .52000007 L .08 .483 L 0 .483 L 0 .41700004 L .08 .41700004 L .08 0 Z "/>
</symbol>
<use xlink:href="#font_2_b" transform="matrix(11,0,0,-11,3.5788799,62.657304)" fill="#404040"/>
<use xlink:href="#font_2_1b" transform="matrix(11,0,0,-11,9.672879,62.525304)" fill="#404040"/>
<use xlink:href="#font_2_f" transform="matrix(11,0,0,-11,12.994881,62.657304)" fill="#404040"/>
<use xlink:href="#font_2_19" transform="matrix(11,0,0,-11,22.02588,62.657304)" fill="#404040"/>
<use xlink:href="#font_2_10" transform="matrix(11,0,0,-11,27.976881,62.525304)" fill="#404040"/>
<use xlink:href="#font_2_1d" transform="matrix(11,0,0,-11,31.023882,62.657304)" fill="#404040"/>
<use xlink:href="#font_2_f" transform="matrix(11,0,0,-11,34.66488,62.657304)" fill="#404040"/>
<use xlink:href="#font_2_18" transform="matrix(11,0,0,-11,41.165884,62.525304)" fill="#404040"/>
<use xlink:href="#font_2_1e" transform="matrix(11,0,0,-11,50.064886,62.657304)" fill="#404040"/>
<use xlink:href="#font_2_1c" transform="matrix(11,0,0,-11,55.663885,62.657304)" fill="#404040"/>
<use xlink:href="#font_2_f" transform="matrix(11,0,0,-11,60.932886,62.657304)" fill="#404040"/>
<use xlink:href="#font_2_e" transform="matrix(11,0,0,-11,67.125888,62.657304)" fill="#404040"/>
<use xlink:href="#font_2_10" transform="matrix(11,0,0,-11,75.94789,62.525304)" fill="#404040"/>
<use xlink:href="#font_2_19" transform="matrix(11,0,0,-11,79.401889,62.657304)" fill="#404040"/>
<use xlink:href="#font_2_1b" transform="matrix(11,0,0,-11,86.001888,62.525304)" fill="#404040"/>
<use xlink:href="#font_2_1b" transform="matrix(11,0,0,-11,92.46988,62.525304)" fill="#404040"/>
<use xlink:href="#font_2_f" transform="matrix(11,0,0,-11,95.79188,62.657304)" fill="#404040"/>
<use xlink:href="#font_2_17" transform="matrix(11,0,0,-11,102.29288,62.525304)" fill="#404040"/>
<use xlink:href="#font_2_19" transform="matrix(11,0,0,-11,110.87288,62.657304)" fill="#404040"/>
<use xlink:href="#font_2_1d" transform="matrix(11,0,0,-11,116.75788,62.657304)" fill="#404040"/>
<use xlink:href="#font_2_f" transform="matrix(11,0,0,-11,120.39888,62.657304)" fill="#404040"/>
<use xlink:href="#font_2_20" transform="matrix(11,0,0,-11,129.04488,62.525304)" fill="#404040"/>
<use xlink:href="#font_2_19" transform="matrix(11,0,0,-11,137.50388,62.657304)" fill="#404040"/>
<use xlink:href="#font_2_1b" transform="matrix(11,0,0,-11,144.10388,62.525304)" fill="#404040"/>
<use xlink:href="#font_2_15" transform="matrix(11,0,0,-11,147.73389,62.525304)" fill="#404040"/>
<use xlink:href="#font_2_b" transform="matrix(11,0,0,-11,155.9289,62.657304)" fill="#404040"/>
<use xlink:href="#font_2_18" transform="matrix(11,0,0,-11,162.02289,62.525304)" fill="#404040"/>
<use xlink:href="#font_2_e" transform="matrix(11,0,0,-11,167.7759,62.657304)" fill="#404040"/>
<use xlink:href="#font_2_19" transform="matrix(11,0,0,-11,176.93889,62.657304)" fill="#404040"/>
<use xlink:href="#font_2_18" transform="matrix(11,0,0,-11,183.5389,62.525304)" fill="#404040"/>
<use xlink:href="#font_2_16" transform="matrix(11,0,0,-11,189.5999,62.525304)" fill="#404040"/>
<use xlink:href="#font_2_13" transform="matrix(11,0,0,-11,191.93192,62.525304)" fill="#404040"/>
<use xlink:href="#font_2_18" transform="matrix(11,0,0,-11,194.54991,62.525304)" fill="#404040"/>
<use xlink:href="#font_2_f" transform="matrix(11,0,0,-11,200.30292,62.657304)" fill="#404040"/>
<use xlink:href="#font_2_d" transform="matrix(11,0,0,-11,209.33391,62.657304)" fill="#404040"/>
<use xlink:href="#font_2_16" transform="matrix(11,0,0,-11,215.08692,62.525304)" fill="#404040"/>
<use xlink:href="#font_2_b" transform="matrix(11,0,0,-11,217.26493,62.657304)" fill="#404040"/>
<use xlink:href="#font_2_1c" transform="matrix(11,0,0,-11,222.89693,62.657304)" fill="#404040"/>
<use xlink:href="#font_2_1c" transform="matrix(11,0,0,-11,228.01194,62.657304)" fill="#404040"/>
<use xlink:href="#font_2_20" transform="matrix(11,0,0,-11,235.73394,62.525304)" fill="#404040"/>
<use xlink:href="#font_2_13" transform="matrix(11,0,0,-11,244.35794,62.525304)" fill="#404040"/>
<use xlink:href="#font_2_1d" transform="matrix(11,0,0,-11,246.26094,62.657304)" fill="#404040"/>
<use xlink:href="#font_2_12" transform="matrix(11,0,0,-11,250.20993,62.525304)" fill="#404040"/>
<use xlink:href="#font_2_1f" transform="matrix(11,0,0,-11,258.32795,62.525304)" fill="#404040"/>
<use xlink:href="#font_2_13" transform="matrix(11,0,0,-11,264.36695,62.525304)" fill="#404040"/>
<use xlink:href="#font_2_e" transform="matrix(11,0,0,-11,266.67695,62.657304)" fill="#404040"/>
<use xlink:href="#font_2_f" transform="matrix(11,0,0,-11,273.00196,62.657304)" fill="#404040"/>
<use xlink:href="#font_2_19" transform="matrix(11,0,0,-11,279.19496,62.657304)" fill="#404040"/>
<use xlink:href="#font_2_d" transform="matrix(11,0,0,-11,288.32496,62.657304)" fill="#404040"/>
<use xlink:href="#font_2_19" transform="matrix(11,0,0,-11,293.76997,62.657304)" fill="#404040"/>
<use xlink:href="#font_2_18" transform="matrix(11,0,0,-11,300.36997,62.525304)" fill="#404040"/>
<use xlink:href="#font_2_1f" transform="matrix(11,0,0,-11,305.63896,62.525304)" fill="#404040"/>
<use xlink:href="#font_2_f" transform="matrix(11,0,0,-11,311.51298,62.657304)" fill="#404040"/>
<use xlink:href="#font_2_1b" transform="matrix(11,0,0,-11,318.01399,62.525304)" fill="#404040"/>
<use xlink:href="#font_2_1c" transform="matrix(11,0,0,-11,321.18199,62.657304)" fill="#404040"/>
<use xlink:href="#font_2_b" transform="matrix(11,0,0,-11,326.46199,62.657304)" fill="#404040"/>
<use xlink:href="#font_2_1d" transform="matrix(11,0,0,-11,331.84095,62.657304)" fill="#404040"/>
<use xlink:href="#font_2_13" transform="matrix(11,0,0,-11,335.64698,62.525304)" fill="#404040"/>
<use xlink:href="#font_2_19" transform="matrix(11,0,0,-11,337.95698,62.657304)" fill="#404040"/>
<use xlink:href="#font_2_18" transform="matrix(11,0,0,-11,344.55699,62.525304)" fill="#404040"/>
<use xlink:href="#font_2_1c" transform="matrix(11,0,0,-11,350.15599,62.657304)" fill="#404040"/>
<use xlink:href="#font_2_22" transform="matrix(11,0,0,-11,358.40599,62.635305)" fill="#404040"/>
<use xlink:href="#font_2_22" transform="matrix(11,0,0,-11,360.93598,62.635305)" fill="#404040"/>
<use xlink:href="#font_2_22" transform="matrix(11,0,0,-11,363.46598,62.635305)" fill="#404040"/>
<symbol id="font_3_1">
<path d="M 0 0 L .142 0 L .142 .66700008 L 0 .66700008 L 0 0 Z "/>
</symbol>
<symbol id="font_3_7">
<path d="M .080000009 0 L .208 0 L .208 .372 L .306 .372 L .306 .483 L .208 .483 L .208 .507 C .208 .55300006 .23200001 .577 .268 .577 C .283 .577 .298 .574 .30900003 .56700006 L .335 .657 C .312 .669 .279 .67700007 .243 .67700007 C .148 .67700007 .080000009 .614 .080000009 .509 L .080000009 .483 L 0 .483 L 0 .372 L .080000009 .372 L .080000009 0 Z "/>
</symbol>
<symbol id="font_3_16">
<path d="M .071 .12100001 L .052000006 .0069999995 C .068 .003000006 .1 0 .115 0 C .198 .002000004 .26200003 .026000008 .29800005 .117000009 L .52500006 .679 L .38800005 .679 L .26200003 .343 L .136 .679 L 0 .679 L .19600001 .18900001 L .178 .148 C .16600001 .12200001 .14400001 .113000009 .111 .113000009 C .099 .113000009 .082 .116000007 .071 .12100001 Z "/>
</symbol>
<symbol id="font_3_e">
<path d="M .255 0 C .41500003 0 .51100006 .116000007 .51100006 .254 C .51100006 .391 .41500003 .507 .255 .507 C .096 .507 0 .391 0 .254 C 0 .116000007 .096 0 .255 0 M .255 .113000009 C .176 .113000009 .132 .178 .132 .254 C .132 .329 .176 .39400003 .255 .39400003 C .33400003 .39400003 .379 .329 .379 .254 C .379 .178 .33400003 .113000009 .255 .113000009 Z "/>
</symbol>
<symbol id="font_3_13">
<path d="M .32600004 .012 L .45300005 .012 L .45300005 .495 L .32600004 .495 L .32600004 .168 C .30400003 .14 .26500003 .113000009 .21600002 .113000009 C .162 .113000009 .127 .135 .127 .202 L .127 .495 L 0 .495 L 0 .152 C 0 .058000007 .050000006 0 .15600002 0 C .23500002 0 .293 .036 .32600004 .07300001 L .32600004 .012 Z "/>
</symbol>
<symbol id="font_3_14">
<path d="M .194 0 L .33100004 0 L .52500006 .483 L .38800005 .483 L .26200003 .147 L .136 .483 L 0 .483 L .194 0 Z "/>
</symbol>
<symbol id="font_3_a">
<path d="M .076000008 .554 C .118000019 .554 .15200001 .588 .15200001 .63000008 C .15200001 .67200008 .118000019 .70600005 .076000008 .70600005 C .035 .70600005 0 .67200008 0 .63000008 C 0 .588 .035 .554 .076000008 .554 M .013 0 L .14000002 0 L .14000002 .483 L .013 .483 L .013 0 Z "/>
</symbol>
<symbol id="font_3_11">
<path d="M 0 .075 C .051000004 .028 .13200002 0 .21600002 0 C .35000003 0 .425 .066 .425 .155 C .425 .275 .314 .29700003 .231 .31300003 C .17700002 .324 .13900002 .335 .13900002 .365 C .13900002 .393 .16900002 .41000004 .21500002 .41000004 C .27400003 .41000004 .32900004 .38500003 .358 .354 L .40800003 .441 C .36100004 .479 .296 .507 .21400002 .507 C .087 .507 .015999999 .43600003 .015999999 .35500003 C .015999999 .24000001 .12300001 .22 .20600002 .204 C .261 .193 .303 .18100001 .303 .147 C .303 .117000009 .277 .098000008 .22200002 .098000008 C .16200002 .098000008 .09 .131 .055000005 .164 L 0 .075 Z "/>
</symbol>
<symbol id="font_3_12">
<path d="M .21700001 0 C .27000005 0 .30400003 .014 .32300005 .031000002 L .29600004 .127 C .28900004 .120000008 .27100004 .113000009 .25200004 .113000009 C .224 .113000009 .208 .136 .208 .16600001 L .208 .384 L .30600003 .384 L .30600003 .495 L .208 .495 L .208 .62700006 L .080000009 .62700006 L .080000009 .495 L 0 .495 L 0 .384 L .080000009 .384 L .080000009 .132 C .080000009 .046000005 .128 0 .21700001 0 Z "/>
</symbol>
<symbol id="font_3_9">
<path d="M .32700003 0 L .45400004 0 L .45400004 .34300003 C .45400004 .437 .40300004 .49500004 .29700003 .49500004 C .21800003 .49500004 .15800002 .45700003 .127 .42000003 L .127 .66700008 L 0 .66700008 L 0 0 L .127 0 L .127 .32500003 C .14900002 .354 .18800003 .38200004 .23700002 .38200004 C .29200004 .38200004 .32700003 .36100004 .32700003 .294 L .32700003 0 Z "/>
</symbol>
<symbol id="font_3_6">
<path d="M 0 .254 C 0 .09900001 .111 0 .25800003 0 C .333 0 .40800003 .022 .45700003 .067 L .40100003 .149 C .37 .11900001 .317 .101 .272 .101 C .19000001 .101 .141 .152 .133 .213 L .49200005 .213 L .49200005 .24100001 C .49200005 .39900003 .39400003 .507 .25 .507 C .103 .507 0 .39400003 0 .254 M .25 .40600003 C .33400003 .40600003 .36600004 .345 .36900003 .299 L .131 .299 C .13700001 .347 .171 .40600003 .25 .40600003 Z "/>
</symbol>
<symbol id="font_3_2">
<path d="M .321 .012 L .448 .012 L .448 .324 C .448 .46300004 .347 .507 .23700002 .507 C .161 .507 .08500001 .483 .026 .43100003 L .074 .34600003 C .114999998 .384 .163 .40300004 .215 .40300004 C .279 .40300004 .321 .37100003 .321 .322 L .321 .25500003 C .289 .294 .232 .314 .168 .314 C .091000009 .314 0 .273 0 .16 C 0 .052 .091000009 0 .168 0 C .231 0 .28800003 .023000002 .321 .062 L .321 .012 M .321 .128 C .3 .10000001 .26000003 .086 .21900001 .086 C .169 .086 .128 .112 .128 .157 C .128 .20300001 .169 .23 .21900001 .23 C .26000003 .23 .3 .216 .321 .18800001 L .321 .128 Z "/>
</symbol>
<symbol id="font_3_3">
<path d="M 0 .012 L .127 .012 L .127 .07300001 C .16500002 .026 .21800003 0 .27600003 0 C .39800004 0 .49000005 .09200001 .49000005 .25300003 C .49000005 .411 .39900003 .507 .27600003 .507 C .21900001 .507 .16500002 .48200003 .127 .43300004 L .127 .6790001 L 0 .6790001 L 0 .012 M .127 .167 L .127 .338 C .148 .37 .19500003 .39400003 .23600003 .39400003 C .31000004 .39400003 .35900004 .337 .35900004 .25300003 C .35900004 .169 .31000004 .113000009 .23600003 .113000009 C .19500003 .113000009 .148 .136 .127 .167 Z "/>
</symbol>
<symbol id="font_3_15">
<path d="M .48700003 0 L .62200006 0 L .76900008 .483 L .637 .483 L .54700008 .158 L .441 .483 L .328 .483 L .22200002 .158 L .132 .483 L 0 .483 L .147 0 L .28300003 0 L .38500003 .32900004 L .48700003 0 Z "/>
</symbol>
<symbol id="font_3_f">
<path d="M .127 0 L .127 .24600002 C .16600001 .19600001 .21900001 .17200002 .27600003 .17200002 C .40000005 .17200002 .49000005 .26500003 .49000005 .42600004 C .49000005 .587 .40000005 .679 .27600003 .679 C .21700001 .679 .164 .653 .127 .60600009 L .127 .66700008 L 0 .66700008 L 0 0 L .127 0 M .35800005 .42600004 C .35800005 .342 .30900003 .28500004 .23600003 .28500004 C .19500003 .28500004 .148 .31 .127 .34000004 L .127 .51100006 C .148 .54200008 .19500003 .56600007 .23600003 .56600007 C .30900003 .56600007 .35800005 .50900009 .35800005 .42600004 Z "/>
</symbol>
<symbol id="font_3_8">
<path d="M .021000002 .072000008 C .081 .019000009 .146 0 .229 0 C .34800003 0 .49 .045 .49 .229 L .49 .679 L .36200003 .679 L .36200003 .61700007 C .323 .666 .271 .69100007 .213 .69100007 C .091000009 .69100007 0 .60300007 0 .44500003 C 0 .284 .09200001 .19900002 .213 .19900002 C .272 .19900002 .324 .22700002 .36200003 .275 L .36200003 .22600001 C .36200003 .13100001 .29000003 .104 .229 .104 C .168 .104 .117 .12100001 .07800001 .164 L .021000002 .072000008 M .36200003 .367 C .34100003 .33600004 .29500003 .312 .25300003 .312 C .18100001 .312 .131 .36200003 .131 .44500003 C .131 .528 .18100001 .57800009 .25300003 .57800009 C .29500003 .57800009 .34100003 .55500009 .36200003 .523 L .36200003 .367 Z "/>
</symbol>
<symbol id="font_3_18">
<path d="M .065 0 C .126 .044000009 .168 .11100001 .168 .18600002 C .168 .25100003 .125 .28800003 .077999997 .28800003 C .036000004 .28800003 0 .252 0 .208 C 0 .165 .030000005 .135 .068 .135 C .075 .135 .08400001 .13700001 .087 .13800001 C .078999999 .10300001 .042 .062000008 .010000002 .045 L .065 0 Z "/>
</symbol>
<symbol id="font_3_10">
<path d="M 0 0 L .127 0 L .127 .319 C .148 .35000003 .20400003 .37300004 .24600002 .37300004 C .26000003 .37300004 .272 .372 .28100003 .37 L .28100003 .49400003 C .22100002 .49400003 .16100002 .46 .127 .41700004 L .127 .483 L 0 .483 L 0 0 Z "/>
</symbol>
<symbol id="font_3_d">
<path d="M .32600004 0 L .45300005 0 L .45300005 .34100003 C .45300005 .43500004 .40200005 .49500004 .29600004 .49500004 C .21700001 .49500004 .15800002 .45700003 .127 .42000003 L .127 .483 L 0 .483 L 0 0 L .127 0 L .127 .32500003 C .148 .354 .187 .38200004 .23700002 .38200004 C .291 .38200004 .32600004 .35900004 .32600004 .29200004 L .32600004 0 Z "/>
</symbol>
<use xlink:href="#font_3_1" transform="matrix(11,0,0,-11,14.2537,93.20531)" fill="#018000"/>
<use xlink:href="#font_3_7" transform="matrix(11,0,0,-11,16.6627,93.20531)" fill="#018000"/>
<use xlink:href="#font_3_16" transform="matrix(11,0,0,-11,22.8887,95.361309)" fill="#018000"/>
<use xlink:href="#font_3_e" transform="matrix(11,0,0,-11,28.9497,93.33731)" fill="#018000"/>
<use xlink:href="#font_3_13" transform="matrix(11,0,0,-11,35.6047,93.33731)" fill="#018000"/>
<use xlink:href="#font_3_14" transform="matrix(11,0,0,-11,44.030698,93.20531)" fill="#018000"/>
<use xlink:href="#font_3_a" transform="matrix(11,0,0,-11,50.2897,93.20531)" fill="#018000"/>
<use xlink:href="#font_3_11" transform="matrix(11,0,0,-11,52.753698,93.33731)" fill="#018000"/>
<use xlink:href="#font_3_a" transform="matrix(11,0,0,-11,58.3197,93.20531)" fill="#018000"/>
<use xlink:href="#font_3_12" transform="matrix(11,0,0,-11,60.640707,93.33731)" fill="#018000"/>
<use xlink:href="#font_3_12" transform="matrix(11,0,0,-11,67.174709,93.33731)" fill="#018000"/>
<use xlink:href="#font_3_9" transform="matrix(11,0,0,-11,71.49771,93.20531)" fill="#018000"/>
<use xlink:href="#font_3_6" transform="matrix(11,0,0,-11,77.536708,93.33731)" fill="#018000"/>
<use xlink:href="#font_3_2" transform="matrix(11,0,0,-11,86.43571,93.33731)" fill="#018000"/>
<use xlink:href="#font_3_3" transform="matrix(11,0,0,-11,92.74971,93.33731)" fill="#018000"/>
<use xlink:href="#font_3_e" transform="matrix(11,0,0,-11,98.854709,93.33731)" fill="#018000"/>
<use xlink:href="#font_3_14" transform="matrix(11,0,0,-11,104.75071,93.20531)" fill="#018000"/>
<use xlink:href="#font_3_6" transform="matrix(11,0,0,-11,110.81171,93.33731)" fill="#018000"/>
<use xlink:href="#font_3_15" transform="matrix(11,0,0,-11,119.35871,93.20531)" fill="#018000"/>
<use xlink:href="#font_3_6" transform="matrix(11,0,0,-11,128.16971,93.33731)" fill="#018000"/>
<use xlink:href="#font_3_3" transform="matrix(11,0,0,-11,134.5937,93.33731)" fill="#018000"/>
<use xlink:href="#font_3_f" transform="matrix(11,0,0,-11,141.0397,95.22931)" fill="#018000"/>
<use xlink:href="#font_3_2" transform="matrix(11,0,0,-11,147.13372,93.33731)" fill="#018000"/>
<use xlink:href="#font_3_8" transform="matrix(11,0,0,-11,153.10672,95.361309)" fill="#018000"/>
<use xlink:href="#font_3_6" transform="matrix(11,0,0,-11,159.54172,93.33731)" fill="#018000"/>
<use xlink:href="#font_3_18" transform="matrix(11,0,0,-11,165.74571,94.71231)" fill="#018000"/>
<use xlink:href="#font_3_16" transform="matrix(11,0,0,-11,170.79471,95.361309)" fill="#018000"/>
<use xlink:href="#font_3_e" transform="matrix(11,0,0,-11,176.85572,93.33731)" fill="#018000"/>
<use xlink:href="#font_3_13" transform="matrix(11,0,0,-11,183.5107,93.33731)" fill="#018000"/>
<use xlink:href="#font_3_10" transform="matrix(11,0,0,-11,189.8797,93.20531)" fill="#018000"/>
<use xlink:href="#font_3_3" transform="matrix(11,0,0,-11,196.6557,93.33731)" fill="#018000"/>
<use xlink:href="#font_3_10" transform="matrix(11,0,0,-11,203.1017,93.20531)" fill="#018000"/>
<use xlink:href="#font_3_e" transform="matrix(11,0,0,-11,206.72072,93.33731)" fill="#018000"/>
<use xlink:href="#font_3_15" transform="matrix(11,0,0,-11,212.68271,93.20531)" fill="#018000"/>
<use xlink:href="#font_3_11" transform="matrix(11,0,0,-11,221.37271,93.33731)" fill="#018000"/>
<use xlink:href="#font_3_a" transform="matrix(11,0,0,-11,226.9387,93.20531)" fill="#018000"/>
<use xlink:href="#font_3_d" transform="matrix(11,0,0,-11,229.8647,93.20531)" fill="#018000"/>
<use xlink:href="#font_3_8" transform="matrix(11,0,0,-11,235.89272,95.361309)" fill="#018000"/>
<use xlink:href="#font_3_9" transform="matrix(11,0,0,-11,245.4847,93.20531)" fill="#018000"/>
<use xlink:href="#font_3_a" transform="matrix(11,0,0,-11,251.72171,93.20531)" fill="#018000"/>
<use xlink:href="#font_3_11" transform="matrix(11,0,0,-11,254.18572,93.33731)" fill="#018000"/>
<use xlink:href="#font_3_12" transform="matrix(11,0,0,-11,259.28974,93.33731)" fill="#018000"/>
<use xlink:href="#font_3_e" transform="matrix(11,0,0,-11,263.2717,93.33731)" fill="#018000"/>
<use xlink:href="#font_3_10" transform="matrix(11,0,0,-11,269.9267,93.20531)" fill="#018000"/>
<use xlink:href="#font_3_16" transform="matrix(11,0,0,-11,273.12773,95.361309)" fill="#018000"/>
<use xlink:href="#font_3_e" transform="matrix(11,0,0,-11,282.00474,93.33731)" fill="#018000"/>
<use xlink:href="#font_3_d" transform="matrix(11,0,0,-11,288.65974,93.20531)" fill="#018000"/>
<use xlink:href="#font_3_12" transform="matrix(11,0,0,-11,297.23976,93.33731)" fill="#018000"/>
<use xlink:href="#font_3_9" transform="matrix(11,0,0,-11,301.5627,93.20531)" fill="#018000"/>
<use xlink:href="#font_3_6" transform="matrix(11,0,0,-11,307.6017,93.33731)" fill="#018000"/>
<use xlink:href="#font_3_15" transform="matrix(11,0,0,-11,316.14875,93.20531)" fill="#018000"/>
<use xlink:href="#font_3_6" transform="matrix(11,0,0,-11,324.95976,93.33731)" fill="#018000"/>
<use xlink:href="#font_3_3" transform="matrix(11,0,0,-11,331.38377,93.33731)" fill="#018000"/>
<use xlink:href="#font_3_f" transform="matrix(11,0,0,-11,337.82978,95.22931)" fill="#018000"/>
<use xlink:href="#font_3_2" transform="matrix(11,0,0,-11,343.92378,93.33731)" fill="#018000"/>
<use xlink:href="#font_3_8" transform="matrix(11,0,0,-11,349.89677,95.361309)" fill="#018000"/>
<use xlink:href="#font_3_6" transform="matrix(11,0,0,-11,356.33177,93.33731)" fill="#018000"/>
<symbol id="font_3_4">
<path d="M 0 .254 C 0 .105000007 .10700001 0 .256 0 C .35500003 0 .41500003 .043 .44700004 .08800001 L .36400003 .165 C .34100003 .133 .30600003 .113000009 .262 .113000009 C .185 .113000009 .131 .17 .131 .254 C .131 .338 .185 .39400003 .262 .39400003 C .30600003 .39400003 .34100003 .375 .36400003 .342 L .44700004 .419 C .41500003 .46400003 .35500003 .507 .256 .507 C .10700001 .507 0 .402 0 .254 Z "/>
</symbol>
<symbol id="font_3_c">
<path d="M 0 0 L .127 0 L .127 .66700008 L 0 .66700008 L 0 0 Z "/>
</symbol>
<symbol id="font_3_b">
<path d="M .31300003 0 L .47200004 0 L .27500005 .264 L .46600006 .483 L .31000004 .483 L .127 .268 L .127 .66700008 L 0 .66700008 L 0 0 L .127 0 L .127 .124000009 L .185 .186 L .31300003 0 Z "/>
</symbol>
<symbol id="font_3_5">
<path d="M .363 .012 L .491 .012 L .491 .6790001 L .363 .6790001 L .363 .43300004 C .32500003 .48200003 .271 .507 .214 .507 C .091000009 .507 0 .411 0 .25300003 C 0 .09200001 .09200001 0 .214 0 C .272 0 .32500003 .026 .363 .07300001 L .363 .012 M .363 .168 C .34100003 .136 .296 .113000009 .25300003 .113000009 C .18100001 .113000009 .131 .17 .131 .25300003 C .131 .337 .18100001 .39400003 .25300003 .39400003 C .296 .39400003 .34100003 .37100003 .363 .33900003 L .363 .168 Z "/>
</symbol>
<symbol id="font_3_17">
<path d="M 0 .081 C 0 .037 .037000006 0 .081 0 C .125 0 .162 .037 .162 .081 C .162 .12500002 .125 .16200002 .081 .16200002 C .037000006 .16200002 0 .12500002 0 .081 Z "/>
</symbol>
<use xlink:href="#font_3_4" transform="matrix(11,0,0,-11,13.879701,107.33731)" fill="#018000"/>
<use xlink:href="#font_3_2" transform="matrix(11,0,0,-11,19.3687,107.33731)" fill="#018000"/>
<use xlink:href="#font_3_d" transform="matrix(11,0,0,-11,25.682702,107.20531)" fill="#018000"/>
<use xlink:href="#font_3_3" transform="matrix(11,0,0,-11,34.867704,107.33731)" fill="#018000"/>
<use xlink:href="#font_3_6" transform="matrix(11,0,0,-11,40.972707,107.33731)" fill="#018000"/>
<use xlink:href="#font_3_c" transform="matrix(11,0,0,-11,50.212709,107.20531)" fill="#018000"/>
<use xlink:href="#font_3_6" transform="matrix(11,0,0,-11,52.654706,107.33731)" fill="#018000"/>
<use xlink:href="#font_3_2" transform="matrix(11,0,0,-11,58.737707,107.33731)" fill="#018000"/>
<use xlink:href="#font_3_b" transform="matrix(11,0,0,-11,65.051708,107.20531)" fill="#018000"/>
<use xlink:href="#font_3_6" transform="matrix(11,0,0,-11,70.3647,107.33731)" fill="#018000"/>
<use xlink:href="#font_3_5" transform="matrix(11,0,0,-11,76.4477,107.33731)" fill="#018000"/>
<use xlink:href="#font_3_12" transform="matrix(11,0,0,-11,85.44571,107.33731)" fill="#018000"/>
<use xlink:href="#font_3_e" transform="matrix(11,0,0,-11,89.42771,107.33731)" fill="#018000"/>
<use xlink:href="#font_3_12" transform="matrix(11,0,0,-11,98.29372,107.33731)" fill="#018000"/>
<use xlink:href="#font_3_9" transform="matrix(11,0,0,-11,102.61672,107.20531)" fill="#018000"/>
<use xlink:href="#font_3_6" transform="matrix(11,0,0,-11,108.655719,107.33731)" fill="#018000"/>
<use xlink:href="#font_3_15" transform="matrix(11,0,0,-11,117.20272,107.20531)" fill="#018000"/>
<use xlink:href="#font_3_6" transform="matrix(11,0,0,-11,126.01372,107.33731)" fill="#018000"/>
<use xlink:href="#font_3_3" transform="matrix(11,0,0,-11,132.43772,107.33731)" fill="#018000"/>
<use xlink:href="#font_3_f" transform="matrix(11,0,0,-11,138.88372,109.22931)" fill="#018000"/>
<use xlink:href="#font_3_2" transform="matrix(11,0,0,-11,144.97772,107.33731)" fill="#018000"/>
<use xlink:href="#font_3_8" transform="matrix(11,0,0,-11,150.95073,109.361309)" fill="#018000"/>
<use xlink:href="#font_3_6" transform="matrix(11,0,0,-11,157.38573,107.33731)" fill="#018000"/>
<use xlink:href="#font_3_17" transform="matrix(11,0,0,-11,163.5897,107.32631)" fill="#018000"/>
</g>
</g>
</svg>
